<svg width="3425" height="758" viewBox="0 0 3425 758" fill="none" xmlns="http://www.w3.org/2000/svg">
<g clip-path="url(#clip0_2261_20068)">
<rect width="3425" height="758" fill="white"/>
<g clip-path="url(#clip1_2261_20068)">
<rect width="3447" height="750" transform="matrix(-1 0 0 -1 3448 750)" fill="url(#paint0_linear_2261_20068)"/>
<rect width="3421" height="760" transform="matrix(-1 0 0 -1 3422 754)" fill="url(#paint1_linear_2261_20068)"/>
<path fill-rule="evenodd" clip-rule="evenodd" d="M1016.5 296.391H1022.6V528.324H1016.5V296.391Z" fill="white"/>
<path fill-rule="evenodd" clip-rule="evenodd" d="M1044.47 296.391H1050.57V528.324H1044.47V296.391Z" fill="white"/>
<path fill-rule="evenodd" clip-rule="evenodd" d="M1189.57 336.312H1196.79V610.457H1189.57V336.312Z" fill="white"/>
<path fill-rule="evenodd" clip-rule="evenodd" d="M1132.22 202.001H1159.94V434.242H1148.03V336.313H1141.71V242.984H1131.91V202.313L1132.22 202.001" fill="white"/>
<path fill-rule="evenodd" clip-rule="evenodd" d="M1141.71 242.983H1169.73V560.414H1148.02V336.312H1141.71V242.983Z" fill="white"/>
<path fill-rule="evenodd" clip-rule="evenodd" d="M1148.03 336.312H1176.05V610.457H1148.03V336.312Z" fill="white"/>
<path fill-rule="evenodd" clip-rule="evenodd" d="M1506.92 490.147H1474.32V617.09H1520.64V503.873L1506.92 490.147Z" fill="white"/>
<path fill-rule="evenodd" clip-rule="evenodd" d="M1413.12 451.535H1372.83V608.438H1430.09V468.499L1413.12 451.535" fill="white"/>
<path fill-rule="evenodd" clip-rule="evenodd" d="M1304.98 454.457H1264.68V611.359H1321.94V471.422L1304.98 454.457" fill="white"/>
<path fill-rule="evenodd" clip-rule="evenodd" d="M1506.92 498.713H1474.32V625.656H1520.64V512.439L1506.92 498.713Z" fill="#DCD9E0"/>
<path fill-rule="evenodd" clip-rule="evenodd" d="M1542.99 536.369H1530.75V584.055H1548.15V541.525L1542.99 536.369" fill="#DCD9E0"/>
<path fill-rule="evenodd" clip-rule="evenodd" d="M1544.93 557.893H1527.53V625.656H1552.26V565.219L1544.93 557.893Z" fill="#DCD9E0"/>
<path fill-rule="evenodd" clip-rule="evenodd" d="M1475.18 544H1421V701H1498V560.976L1475.18 544Z" fill="#B5AFBE"/>
<path fill-rule="evenodd" clip-rule="evenodd" d="M1413.12 458.753H1372.83V615.656H1430.09V475.719L1413.12 458.753" fill="#DCD9E0"/>
<path fill-rule="evenodd" clip-rule="evenodd" d="M1404.26 512.648H1363.97V669.551H1421.23V529.612L1404.26 512.648Z" fill="#B5AFBE"/>
<path fill-rule="evenodd" clip-rule="evenodd" d="M1323.89 513H1364V670H1307V529.974L1323.89 513Z" fill="#B5AFBE"/>
<path fill-rule="evenodd" clip-rule="evenodd" d="M1180.49 461.668H1140.2V618.57H1197.46V478.632L1180.49 461.668" fill="#B5AFBE"/>
<path fill-rule="evenodd" clip-rule="evenodd" d="M1304.98 461.668H1264.68V618.57H1321.94V478.632L1304.98 461.668Z" fill="#DCD9E0"/>
<path fill-rule="evenodd" clip-rule="evenodd" d="M1117.34 202.001H1145.05V434.242H1091.6V227.735L1117.34 202.001Z" fill="#DCD9E0"/>
<path fill-rule="evenodd" clip-rule="evenodd" d="M1116.99 242.983H1154.87V560.414H1081.81V278.156L1116.99 242.983" fill="#CBC8D2"/>
<path fill-rule="evenodd" clip-rule="evenodd" d="M1088.11 336.312H1161.17V610.457H1088.11V336.312Z" fill="#DCD9E0"/>
<path fill-rule="evenodd" clip-rule="evenodd" d="M1153.5 353.901H1156.21V554.551H1153.5V353.901Z" fill="#EBEBEB"/>
<path fill-rule="evenodd" clip-rule="evenodd" d="M1145.38 353.901H1148.09V554.551H1145.38V353.901Z" fill="#EBEBEB"/>
<path fill-rule="evenodd" clip-rule="evenodd" d="M1137.27 353.901H1139.98V554.551H1137.27V353.901Z" fill="#EBEBEB"/>
<path fill-rule="evenodd" clip-rule="evenodd" d="M1116.99 252.001H1154.87V255.834H1116.99L1081.81 291.008V287.176L1116.99 252.001" fill="#DCD9E0"/>
<path fill-rule="evenodd" clip-rule="evenodd" d="M1116.99 263.27H1154.87V267.103H1116.99L1081.81 302.277V298.445L1116.99 263.27" fill="#DCD9E0"/>
<path fill-rule="evenodd" clip-rule="evenodd" d="M1116.99 289.877H1154.87V293.709H1116.99L1081.81 328.883V325.051L1116.99 289.877" fill="#DCD9E0"/>
<path fill-rule="evenodd" clip-rule="evenodd" d="M1250.24 610.457H1267.37V431.909L1259.47 424.011V344.265L1252.04 336.832V285.812L1239.48 273.253H1222.34L1234.9 285.812V336.832L1242.34 344.265V424.011L1250.24 431.909V610.457Z" fill="white"/>
<path fill-rule="evenodd" clip-rule="evenodd" d="M1023.56 246.811H971.242V450.539H1045.59V268.838L1023.56 246.811Z" fill="#CBC8D2"/>
<path fill-rule="evenodd" clip-rule="evenodd" d="M1028.86 341.598H960V616.77H1058.62V371.35L1028.86 341.598" fill="#CBC8D2"/>
<path fill-rule="evenodd" clip-rule="evenodd" d="M1230.69 273.254H1200.86V389.418H1243.26V285.814L1230.69 273.254" fill="#DCD9E0"/>
<path fill-rule="evenodd" clip-rule="evenodd" d="M1233.71 327.301H1193.42V484.203H1250.68V344.266L1233.71 327.301Z" fill="#DCD9E0"/>
<path fill-rule="evenodd" clip-rule="evenodd" d="M1236.93 410.263H1185.52V610.457H1258.58V431.908L1236.93 410.263Z" fill="#DCD9E0"/>
<path fill-rule="evenodd" clip-rule="evenodd" d="M1091.71 293.025H1053.84V610.457H1126.89V328.2L1091.71 293.025Z" fill="#B5AFBE"/>
<path fill-rule="evenodd" clip-rule="evenodd" d="M1030.4 507.655H1081.81V610.457H1008.75V529.301L1030.4 507.655" fill="#DCD9E0"/>
<path fill-rule="evenodd" clip-rule="evenodd" d="M1001.52 362.912H960V598.711H1019.48V380.867L1001.52 362.912Z" fill="#B5AFBE"/>
<path fill-rule="evenodd" clip-rule="evenodd" d="M1023.56 270.258H971.242V276.569H1023.56L1045.59 298.598V292.286L1023.56 270.258Z" fill="#EBEBEB"/>
<path fill-rule="evenodd" clip-rule="evenodd" d="M1023.56 281.296H971.242V287.609H1023.56L1045.59 309.637V303.325L1023.56 281.296Z" fill="#EBEBEB"/>
<path fill-rule="evenodd" clip-rule="evenodd" d="M1023.56 292.339H971.242V298.653H1023.56L1045.59 320.68V314.367L1023.56 292.339Z" fill="#EBEBEB"/>
<path fill-rule="evenodd" clip-rule="evenodd" d="M1091.71 306.331H1053.84V330.904H1091.71L1126.9 366.078V341.506L1091.71 306.331" fill="white"/>
<path fill-rule="evenodd" clip-rule="evenodd" d="M1091.71 343.752H1053.84V368.326H1091.71L1126.9 403.5V378.927L1091.71 343.752Z" fill="white"/>
<path fill-rule="evenodd" clip-rule="evenodd" d="M1091.71 381.173H1053.84V405.747H1091.71L1126.9 440.922V416.348L1091.71 381.173" fill="white"/>
<path fill-rule="evenodd" clip-rule="evenodd" d="M1091.71 306.33H1053.84V330.902H1091.71V306.33Z" fill="#EBEBEB"/>
<path fill-rule="evenodd" clip-rule="evenodd" d="M1091.71 343.751H1053.84V368.324H1091.71V343.751Z" fill="#EBEBEB"/>
<path fill-rule="evenodd" clip-rule="evenodd" d="M1091.71 381.173H1053.84V405.746H1091.71V381.173Z" fill="#EBEBEB"/>
<path fill-rule="evenodd" clip-rule="evenodd" d="M1001.52 373.285H960V378.246H1001.52L1019.48 396.199V391.239L1001.52 373.285Z" fill="#CBC8D2"/>
<path fill-rule="evenodd" clip-rule="evenodd" d="M1001.52 387.034H960V391.994H1001.52L1019.48 409.949V404.988L1001.52 387.034Z" fill="#CBC8D2"/>
<path fill-rule="evenodd" clip-rule="evenodd" d="M1001.52 400.785H960V405.744H1001.52L1019.48 423.699V418.739L1001.52 400.785Z" fill="#CBC8D2"/>
<path fill-rule="evenodd" clip-rule="evenodd" d="M1001.52 414.534H960V419.494H1001.52L1019.48 437.449V432.489L1001.52 414.534Z" fill="#CBC8D2"/>
<path fill-rule="evenodd" clip-rule="evenodd" d="M1001.52 428.284H960V433.244H1001.52L1019.48 451.199V446.239L1001.52 428.284Z" fill="#CBC8D2"/>
<path fill-rule="evenodd" clip-rule="evenodd" d="M1001.52 442.034H960V446.994H1001.52L1019.48 464.949V459.989L1001.52 442.034Z" fill="#CBC8D2"/>
<path fill-rule="evenodd" clip-rule="evenodd" d="M1001.52 455.784H960V460.744H1001.52L1019.48 478.699V473.739L1001.52 455.784" fill="#CBC8D2"/>
<path fill-rule="evenodd" clip-rule="evenodd" d="M1001.52 469.534H960V474.494H1001.52L1019.48 492.449V487.489L1001.52 469.534Z" fill="#CBC8D2"/>
<path fill-rule="evenodd" clip-rule="evenodd" d="M623.631 497.73H656V624.73H610V511.462L623.631 497.73Z" fill="white"/>
<path fill-rule="evenodd" clip-rule="evenodd" d="M716.891 458.73H757V615.73H700V475.705L716.891 458.73" fill="white"/>
<path fill-rule="evenodd" clip-rule="evenodd" d="M824.89 461.73H865V618.73H808V478.706L824.89 461.73" fill="white"/>
<path fill-rule="evenodd" clip-rule="evenodd" d="M623.631 505.73H656V632.73H610V519.462L623.631 505.73Z" fill="#DCD9E0"/>
<path fill-rule="evenodd" clip-rule="evenodd" d="M587.038 543.73H599V591.73H582V548.921L587.038 543.73" fill="#DCD9E0"/>
<path fill-rule="evenodd" clip-rule="evenodd" d="M585.409 564.73H603V632.73H578V572.082L585.409 564.73Z" fill="#DCD9E0"/>
<path fill-rule="evenodd" clip-rule="evenodd" d="M660.89 550.73H701V707.73H644V567.706L660.89 550.73Z" fill="#B5AFBE"/>
<path fill-rule="evenodd" clip-rule="evenodd" d="M716.891 465.73H757V622.73H700V482.707L716.891 465.73" fill="#DCD9E0"/>
<path fill-rule="evenodd" clip-rule="evenodd" d="M732.89 519.73H773V676.73H716V536.705L732.89 519.73Z" fill="#B5AFBE"/>
<path fill-rule="evenodd" clip-rule="evenodd" d="M810.11 520H770V677H827V536.974L810.11 520Z" fill="#B5AFBE"/>
<path fill-rule="evenodd" clip-rule="evenodd" d="M824.89 468.73H865V625.73H808V485.705L824.89 468.73Z" fill="#DCD9E0"/>
<path fill-rule="evenodd" clip-rule="evenodd" d="M826.784 615.73H809.216C807.446 615.73 806 617.304 806 619.23V619.232C806 621.156 807.446 622.73 809.216 622.73H826.784C828.554 622.73 830 621.156 830 619.232V619.23C830 617.304 828.554 615.73 826.784 615.73Z" fill="#DCD9E0"/>
<path fill-rule="evenodd" clip-rule="evenodd" d="M1001.52 483.284H960V488.244H1001.52L1019.48 506.199V501.239L1001.52 483.284" fill="#CBC8D2"/>
<path fill-rule="evenodd" clip-rule="evenodd" d="M1001.52 497.034H960V501.994H1001.52L1019.48 519.949V514.989L1001.52 497.034" fill="#CBC8D2"/>
<path fill-rule="evenodd" clip-rule="evenodd" d="M1048.01 428.743H1004.36V598.711H1066.39V447.121L1048.01 428.743" fill="#B5AFBE"/>
<path fill-rule="evenodd" clip-rule="evenodd" d="M1048.01 444.073H1004.36V450.838H1048.01L1066.39 469.215V462.45L1048.01 444.073" fill="#EBEBEB"/>
<path fill-rule="evenodd" clip-rule="evenodd" d="M1048.01 461.882H1004.36V468.648H1048.01L1066.39 487.023V480.26L1048.01 461.882" fill="#EBEBEB"/>
<path fill-rule="evenodd" clip-rule="evenodd" d="M1048.01 479.691H1004.36V486.455H1048.01L1066.39 504.832V498.067L1048.01 479.691" fill="#EBEBEB"/>
<path fill-rule="evenodd" clip-rule="evenodd" d="M888.777 341.73H960V616.73H858V371.464L888.777 341.73" fill="#CBC8D2"/>
<path fill-rule="evenodd" clip-rule="evenodd" d="M917.416 362.73H960V598.73H899V380.701L917.416 362.73Z" fill="#B5AFBE"/>
<path fill-rule="evenodd" clip-rule="evenodd" d="M917.416 373.73H960V378.493H917.416L899 395.73V390.968L917.416 373.73Z" fill="#CBC8D2"/>
<path fill-rule="evenodd" clip-rule="evenodd" d="M917.416 386.73H960V391.709H917.416L899 409.73V404.751L917.416 386.73Z" fill="#CBC8D2"/>
<path fill-rule="evenodd" clip-rule="evenodd" d="M917.416 400.73H960V405.708H917.416L899 423.73V418.751L917.416 400.73Z" fill="#CBC8D2"/>
<path fill-rule="evenodd" clip-rule="evenodd" d="M917.416 414.73H960V419.709H917.416L899 437.73V432.751L917.416 414.73Z" fill="#CBC8D2"/>
<path fill-rule="evenodd" clip-rule="evenodd" d="M917.416 428.73H960V433.492H917.416L899 450.73V445.968L917.416 428.73Z" fill="#CBC8D2"/>
<path fill-rule="evenodd" clip-rule="evenodd" d="M917.416 441.73H960V446.709H917.416L899 464.73V459.752L917.416 441.73Z" fill="#CBC8D2"/>
<path fill-rule="evenodd" clip-rule="evenodd" d="M917.416 455.73H960V460.709H917.416L899 478.73V473.751L917.416 455.73" fill="#CBC8D2"/>
<path fill-rule="evenodd" clip-rule="evenodd" d="M917.416 469.73H960V474.709H917.416L899 492.73V487.751L917.416 469.73Z" fill="#CBC8D2"/>
<path fill-rule="evenodd" clip-rule="evenodd" d="M917.416 483.73H960V488.492H917.416L899 505.73V500.968L917.416 483.73" fill="#CBC8D2"/>
<path fill-rule="evenodd" clip-rule="evenodd" d="M917.416 496.73H960V501.709H917.416L899 519.73V514.751L917.416 496.73" fill="#CBC8D2"/>
<path fill-rule="evenodd" clip-rule="evenodd" d="M868.965 428.73H914V598.73H850V447.112L868.965 428.73" fill="#B5AFBE"/>
<path fill-rule="evenodd" clip-rule="evenodd" d="M868.964 443.73H914V450.457H868.964L850 468.73V462.004L868.964 443.73" fill="#EBEBEB"/>
<path fill-rule="evenodd" clip-rule="evenodd" d="M868.964 461.73H914V468.458H868.964L850 486.73V480.005L868.964 461.73" fill="#EBEBEB"/>
<path fill-rule="evenodd" clip-rule="evenodd" d="M868.964 479.73H914V486.456H868.964L850 504.73V498.003L868.964 479.73" fill="#EBEBEB"/>
<path fill-rule="evenodd" clip-rule="evenodd" d="M1302.69 608.993H1320.75C1322.57 608.993 1324.06 610.48 1324.06 612.298V612.301C1324.06 614.118 1322.57 615.605 1320.75 615.605H1302.69C1300.87 615.605 1299.38 614.118 1299.38 612.301V612.298C1299.38 610.48 1300.87 608.993 1302.69 608.993Z" fill="#DCD9E0"/>
<path fill-rule="evenodd" clip-rule="evenodd" d="M1117.34 215.98H1145.05V221.617H1117.34L1091.6 247.352V241.715L1117.34 215.98Z" fill="#B5AFBE"/>
<path fill-rule="evenodd" clip-rule="evenodd" d="M1233.71 342.633H1193.42V352.102H1233.71L1250.68 369.066V359.596L1233.71 342.633" fill="white"/>
<path fill-rule="evenodd" clip-rule="evenodd" d="M1233.71 361.329H1193.42V370.797H1233.71L1250.68 387.762V378.293L1233.71 361.329" fill="white"/>
<path fill-rule="evenodd" clip-rule="evenodd" d="M1233.71 380.028H1193.42V389.497H1233.71L1250.68 406.461V396.992L1233.71 380.028Z" fill="white"/>
<path fill-rule="evenodd" clip-rule="evenodd" d="M1210.91 451.684H1232.11V456.191H1210.91V451.684Z" fill="white"/>
<path fill-rule="evenodd" clip-rule="evenodd" d="M1210.91 459.007H1218.01V463.516H1210.91V459.007Z" fill="white"/>
<path fill-rule="evenodd" clip-rule="evenodd" d="M2567.5 247C2611.96 247 2648 283.042 2648 327.501C2648 371.958 2611.96 408 2567.5 408C2523.04 408 2487 371.958 2487 327.501C2487 283.042 2523.04 247 2567.5 247Z" fill="white"/>
<path fill-rule="evenodd" clip-rule="evenodd" d="M2592 268L2618 278H2609.29L2592 268Z" fill="#372B4E"/>
<path fill-rule="evenodd" clip-rule="evenodd" d="M2635 268L2609 278H2617.71L2635 268Z" fill="#372B4E"/>
<path fill-rule="evenodd" clip-rule="evenodd" d="M2500 479L2514 485H2509.31L2500 479Z" fill="#372B4E"/>
<path fill-rule="evenodd" clip-rule="evenodd" d="M2523 479L2509 485H2513.69L2523 479Z" fill="#372B4E"/>
<path fill-rule="evenodd" clip-rule="evenodd" d="M2541 459L2554 465H2549.65L2541 459Z" fill="#372B4E"/>
<path fill-rule="evenodd" clip-rule="evenodd" d="M2562 459L2550 465H2554.02L2562 459Z" fill="#372B4E"/>
</g>
<path fill-rule="evenodd" clip-rule="evenodd" d="M1922.91 609.738H2757V750H1922.91V609.738Z" fill="#DCD9E0"/>
<path fill-rule="evenodd" clip-rule="evenodd" d="M1922.91 650.904H2757V689.399H2613.58C2595.72 689.399 2581.11 704.007 2581.11 721.865V738.633H2555.86V721.865C2555.86 704.007 2541.25 689.399 2523.38 689.399H2076.96C2059.1 689.399 2044.49 704.007 2044.49 721.865V738.633H2019.23V721.865C2019.23 704.007 2004.62 689.399 1986.76 689.399H1922.91V650.904Z" fill="white"/>
<path fill-rule="evenodd" clip-rule="evenodd" d="M1922.91 663.242H2757V701.738H2613.58C2595.72 701.738 2581.11 716.346 2581.11 734.202V750H2555.86V734.202C2555.86 716.346 2541.25 701.738 2523.38 701.738H2076.96C2059.1 701.738 2044.49 716.346 2044.49 734.202V750H2019.23V734.202C2019.23 716.346 2004.62 701.738 1986.76 701.738H1922.91V663.242Z" fill="#372B4E"/>
<path fill-rule="evenodd" clip-rule="evenodd" d="M2026.09 655.392H2037.62C2041.52 655.392 2044.7 658.579 2044.7 662.474C2044.7 666.368 2041.52 669.555 2037.62 669.555H2026.09C2022.19 669.555 2019 666.368 2019 662.474C2019 658.579 2022.19 655.392 2026.09 655.392Z" fill="#372B4E"/>
<path fill-rule="evenodd" clip-rule="evenodd" d="M2562.7 655.392H2574.24C2578.13 655.392 2581.32 658.579 2581.32 662.474C2581.32 666.368 2578.13 669.555 2574.24 669.555H2562.7C2558.81 669.555 2555.62 666.368 2555.62 662.474C2555.62 658.579 2558.81 655.392 2562.7 655.392Z" fill="#372B4E"/>
<path fill-rule="evenodd" clip-rule="evenodd" d="M2265.6 620.258H2283.66C2285.48 620.258 2286.97 621.745 2286.97 623.564V623.566C2286.97 625.384 2285.48 626.871 2283.66 626.871H2265.6C2263.78 626.871 2262.29 625.384 2262.29 623.566V623.564C2262.29 621.745 2263.78 620.258 2265.6 620.258Z" fill="#DCD9E0"/>
<path fill-rule="evenodd" clip-rule="evenodd" d="M2660.35 629.134C2654.97 632.009 2648.83 633.641 2642.3 633.641C2635.77 633.641 2629.63 632.009 2624.25 629.134H2660.35Z" fill="white"/>
<path fill-rule="evenodd" clip-rule="evenodd" d="M2549.83 633.19C2546.61 634.916 2542.92 635.895 2539 635.895C2535.09 635.895 2531.4 634.916 2528.18 633.19H2549.83Z" fill="white"/>
<path fill-rule="evenodd" clip-rule="evenodd" d="M2652.66 616.057C2649.43 617.783 2645.74 618.762 2641.83 618.762C2637.91 618.762 2634.23 617.783 2631 616.057H2652.66Z" fill="white"/>
<path fill-rule="evenodd" clip-rule="evenodd" d="M2154.55 619.468C2149.17 622.345 2143.03 623.977 2136.5 623.977C2129.98 623.977 2123.83 622.345 2118.45 619.468H2154.55Z" fill="white"/>
<path fill-rule="evenodd" clip-rule="evenodd" d="M2507.2 722.588C2495.49 728.853 2482.1 732.41 2467.88 732.41C2453.66 732.41 2440.27 728.853 2428.55 722.588H2507.2" fill="white"/>
<path fill-rule="evenodd" clip-rule="evenodd" d="M2613.62 609.735C2609.36 612.013 2604.5 613.305 2599.33 613.305C2594.17 613.305 2589.3 612.013 2585.04 609.735H2613.62Z" fill="white"/>
<path fill-rule="evenodd" clip-rule="evenodd" d="M2744.75 635.139C2740.49 637.417 2735.63 638.707 2730.46 638.707C2725.3 638.707 2720.43 637.417 2716.17 635.139H2744.75Z" fill="white"/>
<path fill-rule="evenodd" clip-rule="evenodd" d="M2205.49 712.954C2196.66 717.673 2186.58 720.352 2175.87 720.352C2165.16 720.352 2155.08 717.673 2146.25 712.954H2205.49" fill="white"/>
<path fill-rule="evenodd" clip-rule="evenodd" d="M571 609.738H1405.09V750H571V609.738Z" fill="#DCD9E0"/>
<path fill-rule="evenodd" clip-rule="evenodd" d="M571 650.904H1405.09V689.399H1261.68C1243.82 689.399 1229.21 704.007 1229.21 721.865V738.633H1203.95V721.865C1203.95 704.007 1189.34 689.399 1171.48 689.399H725.052C707.191 689.399 692.58 704.007 692.58 721.865V738.633H667.325V721.865C667.325 704.007 652.714 689.399 634.853 689.399H571V650.904Z" fill="white"/>
<path fill-rule="evenodd" clip-rule="evenodd" d="M571 663.242H1405.09V701.738H1261.68C1243.82 701.738 1229.21 716.346 1229.21 734.202V750H1203.95V734.202C1203.95 716.346 1189.34 701.738 1171.48 701.738H725.052C707.191 701.738 692.58 716.346 692.58 734.202V750H667.325V734.202C667.325 716.346 652.714 701.738 634.853 701.738H571V663.242Z" fill="#372B4E"/>
<path fill-rule="evenodd" clip-rule="evenodd" d="M674.181 655.392H685.714C689.61 655.392 692.798 658.579 692.798 662.474C692.798 666.368 689.61 669.555 685.714 669.555H674.181C670.284 669.555 667.098 666.368 667.098 662.474C667.098 658.579 670.284 655.392 674.181 655.392Z" fill="#372B4E"/>
<path fill-rule="evenodd" clip-rule="evenodd" d="M883.849 559.271C887.294 559.271 890.112 562.089 890.112 565.534V671.145C890.112 674.59 887.294 677.406 883.849 677.406C880.405 677.406 877.586 674.59 877.586 671.145V565.534C877.586 562.089 880.405 559.271 883.849 559.271Z" fill="#372B4E"/>
<path fill-rule="evenodd" clip-rule="evenodd" d="M883.849 541.235C887.294 541.235 890.112 544.052 890.112 547.498V555.715C890.112 559.16 887.294 561.977 883.849 561.977C880.405 561.977 877.586 559.16 877.586 555.715V547.498C877.586 544.052 880.405 541.235 883.849 541.235Z" fill="#372B4E"/>
<path fill-rule="evenodd" clip-rule="evenodd" d="M878.083 655.392H889.616C893.513 655.392 896.699 658.579 896.699 662.474C896.699 666.368 893.513 669.555 889.616 669.555H878.083C874.187 669.555 871 666.368 871 662.474C871 658.579 874.187 655.392 878.083 655.392Z" fill="#372B4E"/>
<path fill-rule="evenodd" clip-rule="evenodd" d="M571 576H887V581H571V576Z" fill="#372B4E"/>
<path fill-rule="evenodd" clip-rule="evenodd" d="M571 547H887V553H571V547Z" fill="#372B4E"/>
<path fill-rule="evenodd" clip-rule="evenodd" d="M913.693 620.258H931.756C933.575 620.258 935.062 621.745 935.062 623.564V623.566C935.062 625.384 933.575 626.871 931.756 626.871H913.693C911.874 626.871 910.387 625.384 910.387 623.566V623.564C910.387 621.745 911.874 620.258 913.693 620.258Z" fill="#DCD9E0"/>
<path fill-rule="evenodd" clip-rule="evenodd" d="M820.365 545.723H867.384C868.251 545.723 868.96 546.432 868.96 547.3V547.302C868.96 548.17 868.251 548.879 867.384 548.879H820.365C819.498 548.879 818.789 548.17 818.789 547.302V547.3C818.789 546.432 819.498 545.723 820.365 545.723Z" fill="white"/>
<path fill-rule="evenodd" clip-rule="evenodd" d="M758.123 545.723H805.142C806.009 545.723 806.718 546.432 806.718 547.3V547.302C806.718 548.17 806.009 548.879 805.142 548.879H758.123C757.257 548.879 756.547 548.17 756.547 547.302V547.3C756.547 546.432 757.257 545.723 758.123 545.723Z" fill="white"/>
<path fill-rule="evenodd" clip-rule="evenodd" d="M708.819 545.723H714.973C715.841 545.723 716.551 546.432 716.551 547.3V547.302C716.551 548.17 715.841 548.879 714.973 548.879H708.819C707.951 548.879 707.242 548.17 707.242 547.302V547.3C707.242 546.432 707.951 545.723 708.819 545.723Z" fill="white"/>
<path fill-rule="evenodd" clip-rule="evenodd" d="M1308.44 629.134C1303.06 632.009 1296.92 633.641 1290.39 633.641C1283.87 633.641 1277.72 632.009 1272.35 629.134H1308.44Z" fill="white"/>
<path fill-rule="evenodd" clip-rule="evenodd" d="M1197.93 633.19C1194.7 634.916 1191.01 635.895 1187.1 635.895C1183.18 635.895 1179.5 634.916 1176.27 633.19H1197.93Z" fill="white"/>
<path fill-rule="evenodd" clip-rule="evenodd" d="M1300.75 616.057C1297.53 617.783 1293.84 618.762 1289.92 618.762C1286.01 618.762 1282.32 617.783 1279.09 616.057H1300.75Z" fill="white"/>
<path fill-rule="evenodd" clip-rule="evenodd" d="M802.644 619.468C797.266 622.345 791.122 623.977 784.596 623.977C778.07 623.977 771.926 622.345 766.547 619.468H802.644Z" fill="white"/>
<path fill-rule="evenodd" clip-rule="evenodd" d="M1155.3 722.588C1143.58 728.853 1130.19 732.41 1115.97 732.41C1101.76 732.41 1088.37 728.853 1076.65 722.588H1155.3" fill="white"/>
<path fill-rule="evenodd" clip-rule="evenodd" d="M1261.72 609.735C1257.46 612.013 1252.59 613.305 1247.43 613.305C1242.26 613.305 1237.39 612.013 1233.14 609.735H1261.72Z" fill="white"/>
<path fill-rule="evenodd" clip-rule="evenodd" d="M1392.85 635.139C1388.58 637.417 1383.72 638.707 1378.55 638.707C1373.39 638.707 1368.52 637.417 1364.27 635.139H1392.85Z" fill="white"/>
<path fill-rule="evenodd" clip-rule="evenodd" d="M853.586 712.954C844.759 717.673 834.675 720.352 823.967 720.352C813.258 720.352 803.175 717.673 794.348 712.954H853.586" fill="white"/>
<path fill-rule="evenodd" clip-rule="evenodd" d="M595.941 545.723H653.22C654.088 545.723 654.796 546.432 654.796 547.3V547.302C654.796 548.17 654.088 548.879 653.22 548.879H595.941C595.073 548.879 594.363 548.17 594.363 547.302V547.3C594.363 546.432 595.073 545.723 595.941 545.723Z" fill="white"/>
<path fill-rule="evenodd" clip-rule="evenodd" d="M0 609.738H834.093V750H0V609.738Z" fill="#DCD9E0"/>
<path fill-rule="evenodd" clip-rule="evenodd" d="M0 650.904H834.093V689.399H690.677C672.816 689.399 658.206 704.007 658.206 721.865V738.633H632.95V721.865C632.95 704.007 618.339 689.399 600.478 689.399H154.052C136.191 689.399 121.58 704.007 121.58 721.865V738.633H96.3255V721.865C96.3255 704.007 81.7137 689.399 63.8532 689.399H0V650.904Z" fill="white"/>
<path fill-rule="evenodd" clip-rule="evenodd" d="M0 663.242H834.093V701.738H690.677C672.816 701.738 658.206 716.346 658.206 734.202V750H632.95V734.202C632.95 716.346 618.339 701.738 600.478 701.738H154.052C136.191 701.738 121.58 716.346 121.58 734.202V750H96.3255V734.202C96.3255 716.346 81.7137 701.738 63.8532 701.738H0V663.242Z" fill="#372B4E"/>
<path fill-rule="evenodd" clip-rule="evenodd" d="M108.963 559.271C112.407 559.271 115.226 562.089 115.226 565.534V671.145C115.226 674.59 112.407 677.406 108.963 677.406C105.517 677.406 102.699 674.59 102.699 671.145V565.534C102.699 562.089 105.517 559.271 108.963 559.271Z" fill="#372B4E"/>
<path fill-rule="evenodd" clip-rule="evenodd" d="M108.963 541.235C112.407 541.235 115.226 544.052 115.226 547.498V555.715C115.226 559.16 112.407 561.977 108.963 561.977C105.517 561.977 102.699 559.16 102.699 555.715V547.498C102.699 544.052 105.517 541.235 108.963 541.235Z" fill="#372B4E"/>
<path fill-rule="evenodd" clip-rule="evenodd" d="M103.181 655.392H114.714C118.61 655.392 121.798 658.579 121.798 662.474C121.798 666.368 118.61 669.555 114.714 669.555H103.181C99.2845 669.555 96.0977 666.368 96.0977 662.474C96.0977 658.579 99.2845 655.392 103.181 655.392Z" fill="#372B4E"/>
<path fill-rule="evenodd" clip-rule="evenodd" d="M645.564 559.271C649.009 559.271 651.827 562.089 651.827 565.534V671.145C651.827 674.59 649.009 677.406 645.564 677.406C642.119 677.406 639.301 674.59 639.301 671.145V565.534C639.301 562.089 642.119 559.271 645.564 559.271Z" fill="#372B4E"/>
<path fill-rule="evenodd" clip-rule="evenodd" d="M645.564 541.235C649.009 541.235 651.827 544.052 651.827 547.498V555.715C651.827 559.16 649.009 561.977 645.564 561.977C642.119 561.977 639.301 559.16 639.301 555.715V547.498C639.301 544.052 642.119 541.235 645.564 541.235Z" fill="#372B4E"/>
<path fill-rule="evenodd" clip-rule="evenodd" d="M639.798 655.392H651.331C655.227 655.392 658.414 658.579 658.414 662.474C658.414 666.368 655.227 669.555 651.331 669.555H639.798C635.902 669.555 632.715 666.368 632.715 662.474C632.715 658.579 635.902 655.392 639.798 655.392Z" fill="#372B4E"/>
<path fill-rule="evenodd" clip-rule="evenodd" d="M0 576.126H834.093V581.363H0V576.126Z" fill="#372B4E"/>
<path fill-rule="evenodd" clip-rule="evenodd" d="M0 547.271H834.093V552.508H0V547.271Z" fill="#372B4E"/>
<path fill-rule="evenodd" clip-rule="evenodd" d="M342.693 620.258H360.756C362.575 620.258 364.062 621.745 364.062 623.564V623.566C364.062 625.384 362.575 626.871 360.756 626.871H342.693C340.874 626.871 339.387 625.384 339.387 623.566V623.564C339.387 621.745 340.874 620.258 342.693 620.258Z" fill="#DCD9E0"/>
<path fill-rule="evenodd" clip-rule="evenodd" d="M669.01 545.723H766.199C767.069 545.723 767.774 546.432 767.774 547.3V547.302C767.774 548.17 767.069 548.879 766.199 548.879H669.01C668.143 548.879 667.434 548.17 667.434 547.302V547.3C667.434 546.432 668.143 545.723 669.01 545.723Z" fill="white"/>
<path fill-rule="evenodd" clip-rule="evenodd" d="M545.216 545.723H592.236C593.103 545.723 593.811 546.432 593.811 547.3V547.302C593.811 548.17 593.103 548.879 592.236 548.879H545.216C544.35 548.879 543.641 548.17 543.641 547.302V547.3C543.641 546.432 544.35 545.723 545.216 545.723Z" fill="white"/>
<path fill-rule="evenodd" clip-rule="evenodd" d="M613.741 545.723H617.127C617.995 545.723 618.704 546.432 618.704 547.3V547.302C618.704 548.17 617.995 548.879 617.127 548.879H613.741C612.873 548.879 612.164 548.17 612.164 547.302V547.3C612.164 546.432 612.873 545.723 613.741 545.723Z" fill="white"/>
<path fill-rule="evenodd" clip-rule="evenodd" d="M249.365 545.723H296.384C297.251 545.723 297.96 546.432 297.96 547.3V547.302C297.96 548.17 297.251 548.879 296.384 548.879H249.365C248.498 548.879 247.789 548.17 247.789 547.302V547.3C247.789 546.432 248.498 545.723 249.365 545.723Z" fill="white"/>
<path fill-rule="evenodd" clip-rule="evenodd" d="M187.123 545.723H234.142C235.009 545.723 235.718 546.432 235.718 547.3V547.302C235.718 548.17 235.009 548.879 234.142 548.879H187.123C186.257 548.879 185.547 548.17 185.547 547.302V547.3C185.547 546.432 186.257 545.723 187.123 545.723Z" fill="white"/>
<path fill-rule="evenodd" clip-rule="evenodd" d="M137.819 545.723H143.973C144.841 545.723 145.551 546.432 145.551 547.3V547.302C145.551 548.17 144.841 548.879 143.973 548.879H137.819C136.951 548.879 136.242 548.17 136.242 547.302V547.3C136.242 546.432 136.951 545.723 137.819 545.723Z" fill="white"/>
<path fill-rule="evenodd" clip-rule="evenodd" d="M737.44 629.134C732.061 632.009 725.921 633.641 719.392 633.641C712.868 633.641 706.725 632.009 701.346 629.134H737.44Z" fill="white"/>
<path fill-rule="evenodd" clip-rule="evenodd" d="M626.925 633.19C623.699 634.916 620.011 635.895 616.098 635.895C612.182 635.895 608.495 634.916 605.27 633.19H626.925Z" fill="white"/>
<path fill-rule="evenodd" clip-rule="evenodd" d="M729.754 616.057C726.526 617.783 722.837 618.762 718.923 618.762C715.008 618.762 711.32 617.783 708.094 616.057H729.754Z" fill="white"/>
<path fill-rule="evenodd" clip-rule="evenodd" d="M231.644 619.468C226.266 622.345 220.122 623.977 213.596 623.977C207.07 623.977 200.926 622.345 195.547 619.468H231.644Z" fill="white"/>
<path fill-rule="evenodd" clip-rule="evenodd" d="M584.298 722.588C572.581 728.853 559.192 732.41 544.975 732.41C530.755 732.41 517.367 728.853 505.648 722.588H584.298" fill="white"/>
<path fill-rule="evenodd" clip-rule="evenodd" d="M690.717 609.735C686.458 612.013 681.595 613.305 676.427 613.305C671.261 613.305 666.395 612.013 662.137 609.735H690.717Z" fill="white"/>
<path fill-rule="evenodd" clip-rule="evenodd" d="M821.848 635.139C817.584 637.417 812.723 638.707 807.553 638.707C802.39 638.707 797.522 637.417 793.266 635.139H821.848Z" fill="white"/>
<path fill-rule="evenodd" clip-rule="evenodd" d="M282.586 712.954C273.759 717.673 263.675 720.352 252.967 720.352C242.258 720.352 232.175 717.673 223.348 712.954H282.586" fill="white"/>
<path fill-rule="evenodd" clip-rule="evenodd" d="M24.9407 545.723H82.2202C83.0881 545.723 83.7964 546.432 83.7964 547.3V547.302C83.7964 548.17 83.0881 548.879 82.2202 548.879H24.9407C24.0728 548.879 23.3633 548.17 23.3633 547.302V547.3C23.3633 546.432 24.0728 545.723 24.9407 545.723Z" fill="white"/>
<path fill-rule="evenodd" clip-rule="evenodd" d="M2543.91 609.738H3378V750H2543.91V609.738Z" fill="#DCD9E0"/>
<path fill-rule="evenodd" clip-rule="evenodd" d="M2543.91 650.904H3378V689.399H3234.58C3216.72 689.399 3202.11 704.007 3202.11 721.865V738.633H3176.86V721.865C3176.86 704.007 3162.25 689.399 3144.38 689.399H2697.96C2680.1 689.399 2665.49 704.007 2665.49 721.865V738.633H2640.23V721.865C2640.23 704.007 2625.62 689.399 2607.76 689.399H2543.91V650.904Z" fill="white"/>
<path fill-rule="evenodd" clip-rule="evenodd" d="M2543.91 663.242H3378V701.738H3234.58C3216.72 701.738 3202.11 716.346 3202.11 734.202V750H3176.86V734.202C3176.86 716.346 3162.25 701.738 3144.38 701.738H2697.96C2680.1 701.738 2665.49 716.346 2665.49 734.202V750H2640.23V734.202C2640.23 716.346 2625.62 701.738 2607.76 701.738H2543.91V663.242Z" fill="#372B4E"/>
<path fill-rule="evenodd" clip-rule="evenodd" d="M2652.87 559.271C2656.31 559.271 2659.13 562.089 2659.13 565.534V671.145C2659.13 674.59 2656.31 677.406 2652.87 677.406C2649.42 677.406 2646.61 674.59 2646.61 671.145V565.534C2646.61 562.089 2649.42 559.271 2652.87 559.271Z" fill="#372B4E"/>
<path fill-rule="evenodd" clip-rule="evenodd" d="M2652.87 541.235C2656.31 541.235 2659.13 544.052 2659.13 547.498V555.715C2659.13 559.16 2656.31 561.977 2652.87 561.977C2649.42 561.977 2646.61 559.16 2646.61 555.715V547.498C2646.61 544.052 2649.42 541.235 2652.87 541.235Z" fill="#372B4E"/>
<path fill-rule="evenodd" clip-rule="evenodd" d="M2647.09 655.392H2658.62C2662.52 655.392 2665.7 658.579 2665.7 662.474C2665.7 666.368 2662.52 669.555 2658.62 669.555H2647.09C2643.19 669.555 2640 666.368 2640 662.474C2640 658.579 2643.19 655.392 2647.09 655.392Z" fill="#372B4E"/>
<path fill-rule="evenodd" clip-rule="evenodd" d="M3189.47 559.271C3192.92 559.271 3195.73 562.089 3195.73 565.534V671.145C3195.73 674.59 3192.92 677.406 3189.47 677.406C3186.03 677.406 3183.21 674.59 3183.21 671.145V565.534C3183.21 562.089 3186.03 559.271 3189.47 559.271Z" fill="#372B4E"/>
<path fill-rule="evenodd" clip-rule="evenodd" d="M3189.47 541.235C3192.92 541.235 3195.73 544.052 3195.73 547.498V555.715C3195.73 559.16 3192.92 561.977 3189.47 561.977C3186.03 561.977 3183.21 559.16 3183.21 555.715V547.498C3183.21 544.052 3186.03 541.235 3189.47 541.235Z" fill="#372B4E"/>
<path fill-rule="evenodd" clip-rule="evenodd" d="M3183.7 655.392H3195.24C3199.13 655.392 3202.32 658.579 3202.32 662.474C3202.32 666.368 3199.13 669.555 3195.24 669.555H3183.7C3179.81 669.555 3176.62 666.368 3176.62 662.474C3176.62 658.579 3179.81 655.392 3183.7 655.392Z" fill="#372B4E"/>
<path fill-rule="evenodd" clip-rule="evenodd" d="M2653 576H3378V581H2653V576Z" fill="#372B4E"/>
<path fill-rule="evenodd" clip-rule="evenodd" d="M2653 547H3378V553H2653V547Z" fill="#372B4E"/>
<path fill-rule="evenodd" clip-rule="evenodd" d="M2886.6 620.258H2904.66C2906.48 620.258 2907.97 621.745 2907.97 623.564V623.566C2907.97 625.384 2906.48 626.871 2904.66 626.871H2886.6C2884.78 626.871 2883.29 625.384 2883.29 623.566V623.564C2883.29 621.745 2884.78 620.258 2886.6 620.258Z" fill="#DCD9E0"/>
<path fill-rule="evenodd" clip-rule="evenodd" d="M3212.92 545.723H3310.11C3310.98 545.723 3311.68 546.432 3311.68 547.3V547.302C3311.68 548.17 3310.98 548.879 3310.11 548.879H3212.92C3212.05 548.879 3211.34 548.17 3211.34 547.302V547.3C3211.34 546.432 3212.05 545.723 3212.92 545.723Z" fill="white"/>
<path fill-rule="evenodd" clip-rule="evenodd" d="M3089.12 545.723H3136.14C3137.01 545.723 3137.72 546.432 3137.72 547.3V547.302C3137.72 548.17 3137.01 548.879 3136.14 548.879H3089.12C3088.26 548.879 3087.55 548.17 3087.55 547.302V547.3C3087.55 546.432 3088.26 545.723 3089.12 545.723Z" fill="white"/>
<path fill-rule="evenodd" clip-rule="evenodd" d="M3157.65 545.723H3161.03C3161.9 545.723 3162.61 546.432 3162.61 547.3V547.302C3162.61 548.17 3161.9 548.879 3161.03 548.879H3157.65C3156.78 548.879 3156.07 548.17 3156.07 547.302V547.3C3156.07 546.432 3156.78 545.723 3157.65 545.723Z" fill="white"/>
<path fill-rule="evenodd" clip-rule="evenodd" d="M2793.27 545.723H2840.29C2841.16 545.723 2841.87 546.432 2841.87 547.3V547.302C2841.87 548.17 2841.16 548.879 2840.29 548.879H2793.27C2792.4 548.879 2791.7 548.17 2791.7 547.302V547.3C2791.7 546.432 2792.4 545.723 2793.27 545.723Z" fill="white"/>
<path fill-rule="evenodd" clip-rule="evenodd" d="M2731.03 545.723H2778.05C2778.92 545.723 2779.62 546.432 2779.62 547.3V547.302C2779.62 548.17 2778.92 548.879 2778.05 548.879H2731.03C2730.16 548.879 2729.45 548.17 2729.45 547.302V547.3C2729.45 546.432 2730.16 545.723 2731.03 545.723Z" fill="white"/>
<path fill-rule="evenodd" clip-rule="evenodd" d="M2681.73 545.723H2687.88C2688.75 545.723 2689.46 546.432 2689.46 547.3V547.302C2689.46 548.17 2688.75 548.879 2687.88 548.879H2681.73C2680.86 548.879 2680.15 548.17 2680.15 547.302V547.3C2680.15 546.432 2680.86 545.723 2681.73 545.723Z" fill="white"/>
<path fill-rule="evenodd" clip-rule="evenodd" d="M3281.35 629.134C3275.97 632.009 3269.83 633.641 3263.3 633.641C3256.77 633.641 3250.63 632.009 3245.25 629.134H3281.35Z" fill="white"/>
<path fill-rule="evenodd" clip-rule="evenodd" d="M3170.83 633.19C3167.61 634.916 3163.92 635.895 3160 635.895C3156.09 635.895 3152.4 634.916 3149.18 633.19H3170.83Z" fill="white"/>
<path fill-rule="evenodd" clip-rule="evenodd" d="M3273.66 616.057C3270.43 617.783 3266.74 618.762 3262.83 618.762C3258.91 618.762 3255.23 617.783 3252 616.057H3273.66Z" fill="white"/>
<path fill-rule="evenodd" clip-rule="evenodd" d="M2775.55 619.468C2770.17 622.345 2764.03 623.977 2757.5 623.977C2750.98 623.977 2744.83 622.345 2739.45 619.468H2775.55Z" fill="white"/>
<path fill-rule="evenodd" clip-rule="evenodd" d="M3128.2 722.588C3116.49 728.853 3103.1 732.41 3088.88 732.41C3074.66 732.41 3061.27 728.853 3049.55 722.588H3128.2" fill="white"/>
<path fill-rule="evenodd" clip-rule="evenodd" d="M3234.62 609.735C3230.36 612.013 3225.5 613.305 3220.33 613.305C3215.17 613.305 3210.3 612.013 3206.04 609.735H3234.62Z" fill="white"/>
<path fill-rule="evenodd" clip-rule="evenodd" d="M3365.75 635.139C3361.49 637.417 3356.63 638.707 3351.46 638.707C3346.3 638.707 3341.43 637.417 3337.17 635.139H3365.75Z" fill="white"/>
<path fill-rule="evenodd" clip-rule="evenodd" d="M2826.49 712.954C2817.66 717.673 2807.58 720.352 2796.87 720.352C2786.16 720.352 2776.08 717.673 2767.25 712.954H2826.49" fill="white"/>
<path fill-rule="evenodd" clip-rule="evenodd" d="M1402 609.738H2236.09V750H1402V609.738Z" fill="#DCD9E0"/>
<path fill-rule="evenodd" clip-rule="evenodd" d="M1402 650.904H2236.09V689.399H2092.68C2074.82 689.399 2060.21 704.007 2060.21 721.865V738.633H2034.95V721.865C2034.95 704.007 2020.34 689.399 2002.48 689.399H1556.05C1538.19 689.399 1523.58 704.007 1523.58 721.865V738.633H1498.33V721.865C1498.33 704.007 1483.71 689.399 1465.85 689.399H1402V650.904Z" fill="white"/>
<path fill-rule="evenodd" clip-rule="evenodd" d="M1402 663.242H2236.09V701.738H2092.68C2074.82 701.738 2060.21 716.346 2060.21 734.202V750H2034.95V734.202C2034.95 716.346 2020.34 701.738 2002.48 701.738H1556.05C1538.19 701.738 1523.58 716.346 1523.58 734.202V750H1498.33V734.202C1498.33 716.346 1483.71 701.738 1465.85 701.738H1402V663.242Z" fill="#372B4E"/>
<path fill-rule="evenodd" clip-rule="evenodd" d="M1744.68 620.258H1762.74C1764.56 620.258 1766.05 621.745 1766.05 623.564V623.566C1766.05 625.384 1764.56 626.871 1762.74 626.871H1744.68C1742.86 626.871 1741.38 625.384 1741.38 623.566V623.564C1741.38 621.745 1742.86 620.258 1744.68 620.258Z" fill="#DCD9E0"/>
<path fill-rule="evenodd" clip-rule="evenodd" d="M2139.43 629.134C2134.05 632.009 2127.91 633.641 2121.38 633.641C2114.86 633.641 2108.71 632.009 2103.33 629.134H2139.43Z" fill="white"/>
<path fill-rule="evenodd" clip-rule="evenodd" d="M2028.93 633.19C2025.71 634.916 2022.02 635.895 2018.11 635.895C2014.19 635.895 2010.5 634.916 2007.28 633.19H2028.93Z" fill="white"/>
<path fill-rule="evenodd" clip-rule="evenodd" d="M2131.76 616.057C2128.54 617.783 2124.85 618.762 2120.93 618.762C2117.02 618.762 2113.33 617.783 2110.1 616.057H2131.76Z" fill="white"/>
<path fill-rule="evenodd" clip-rule="evenodd" d="M1633.64 619.468C1628.26 622.345 1622.11 623.977 1615.59 623.977C1609.06 623.977 1602.92 622.345 1597.54 619.468H1633.64Z" fill="white"/>
<path fill-rule="evenodd" clip-rule="evenodd" d="M1986.3 722.588C1974.58 728.853 1961.19 732.41 1946.98 732.41C1932.76 732.41 1919.37 728.853 1907.65 722.588H1986.3" fill="white"/>
<path fill-rule="evenodd" clip-rule="evenodd" d="M2092.73 609.735C2088.47 612.013 2083.61 613.305 2078.44 613.305C2073.27 613.305 2068.41 612.013 2064.15 609.735H2092.73Z" fill="white"/>
<path fill-rule="evenodd" clip-rule="evenodd" d="M2223.83 635.139C2219.57 637.417 2214.71 638.707 2209.54 638.707C2204.37 638.707 2199.51 637.417 2195.25 635.139H2223.83Z" fill="white"/>
<path fill-rule="evenodd" clip-rule="evenodd" d="M1684.59 712.954C1675.76 717.673 1665.68 720.352 1654.97 720.352C1644.26 720.352 1634.18 717.673 1625.35 712.954H1684.59" fill="white"/>
<g clip-path="url(#clip2_2261_20068)">
<path fill-rule="evenodd" clip-rule="evenodd" d="M-23.1602 435.937C-11.6683 392.883 91.5012 503.421 220.125 538.121C348.749 572.821 425.544 548.825 538.898 578.177C652.251 607.529 769.251 671.247 1021.52 706.099C1273.79 740.951 1507.04 655.661 1725.53 665.215C1726.11 665.241 1794.11 663.757 1874.89 678.412C2067.28 713.298 2218.75 745.26 2343.46 734.856C2535.88 718.802 2626.89 647.536 2785.95 607.529C2840.88 593.714 2914.33 578.701 2992.68 567.579C3069.44 556.679 3151.18 549.723 3203.13 530.899C3248.07 514.617 3311.52 472.699 3370.8 446.901C3375.95 444.656 3398.98 432.109 3409.44 429.416C3434.53 422.963 3465.23 421.773 3473.77 424.096C3486.93 427.686 3486.93 713.861 3473.77 1282.62L-23.1602 1283V435.937Z" fill="white"/>
<path fill-rule="evenodd" clip-rule="evenodd" d="M1173.7 447.541H980.046C964.035 447.541 950.934 464.683 950.934 485.635V603.227H1233.19V525.383C1233.19 482.57 1206.42 447.541 1173.7 447.541Z" fill="#E81A68"/>
<mask id="mask0_2261_20068" style="mask-type:alpha" maskUnits="userSpaceOnUse" x="884" y="522" width="321" height="75">
<path d="M884 522.001H1205V596.133H884V522.001Z" fill="white"/>
</mask>
<g mask="url(#mask0_2261_20068)">
<path d="M981.048 569.29C980.671 568.706 980.107 568.274 979.356 567.995C978.603 567.716 977.866 567.577 977.146 567.577C976.3 567.577 975.5 567.716 974.749 567.995C973.996 568.274 973.354 568.646 972.821 569.11C972.288 569.575 971.865 570.107 971.552 570.704C971.238 571.302 971.082 571.92 971.082 572.557V572.716C971.865 572.451 972.703 572.165 973.596 571.86C974.49 571.555 975.383 571.242 976.276 570.924C977.169 570.605 978.023 570.306 978.839 570.027C979.653 569.748 980.39 569.503 981.048 569.29ZM984.996 579.25C984.025 579.994 982.85 580.578 981.471 581.003C980.091 581.427 978.681 581.641 977.24 581.641C975.767 581.641 974.38 581.407 973.079 580.944C971.778 580.479 970.65 579.841 969.695 579.031C968.739 578.221 967.979 577.278 967.415 576.202C966.851 575.127 966.568 573.978 966.568 572.756C966.568 571.535 966.851 570.386 967.415 569.31C967.979 568.234 968.739 567.292 969.695 566.481C970.65 565.671 971.763 565.034 973.032 564.569C974.302 564.105 975.642 563.872 977.052 563.872C979.309 563.872 981.29 564.449 982.998 565.604C984.706 566.76 985.92 568.281 986.642 570.166C985.702 570.459 984.613 570.811 983.375 571.222C982.136 571.634 980.843 572.066 979.496 572.517C978.149 572.969 976.801 573.427 975.453 573.892C974.106 574.357 972.868 574.775 971.74 575.146C972.273 575.97 973.009 576.634 973.949 577.139C974.889 577.643 975.954 577.896 977.146 577.896C977.96 577.896 978.783 577.77 979.614 577.517C980.444 577.265 981.125 576.927 981.659 576.501L984.996 579.25Z" fill="white"/>
<path d="M990.121 564.271H994.07C994.132 565.227 994.203 566.004 994.282 566.602C994.36 567.199 994.43 567.87 994.493 568.614C995.214 567.179 996.233 566.024 997.549 565.147C998.865 564.271 1000.51 563.833 1002.48 563.833C1004.52 563.833 1006.14 564.305 1007.35 565.247C1008.56 566.19 1009.19 567.419 1009.25 568.933V581.203H1004.79V570.725C1004.72 569.902 1004.38 569.191 1003.75 568.594C1003.13 567.996 1002.16 567.671 1000.84 567.618C999.93 567.618 999.092 567.757 998.324 568.036C997.556 568.315 996.898 568.693 996.35 569.171C995.802 569.65 995.378 570.221 995.081 570.885C994.783 571.549 994.635 572.266 994.635 573.036V581.203H990.121V564.271Z" fill="white"/>
<path d="M1048.08 568.773C1047.2 568.773 1046.37 568.866 1045.57 569.052C1044.77 569.238 1044.06 569.524 1043.45 569.909C1042.84 570.294 1042.35 570.772 1041.97 571.343C1041.59 571.914 1041.41 572.584 1041.41 573.355V581.203H1036.89V564.271H1040.84C1040.9 565.227 1040.97 566.004 1041.05 566.602C1041.13 567.199 1041.2 567.87 1041.26 568.614C1041.67 567.87 1042.22 567.206 1042.91 566.622C1043.6 566.038 1044.31 565.54 1045.05 565.128C1045.79 564.716 1046.51 564.398 1047.24 564.171C1047.96 563.946 1048.57 563.833 1049.07 563.833L1048.08 568.773Z" fill="white"/>
<path d="M1055.04 572.679C1055.04 573.423 1055.19 574.113 1055.49 574.75C1055.78 575.388 1056.21 575.939 1056.75 576.404C1057.3 576.869 1057.95 577.234 1058.71 577.499C1059.46 577.765 1060.29 577.898 1061.2 577.898C1062.11 577.898 1062.94 577.765 1063.71 577.499C1064.48 577.234 1065.14 576.862 1065.69 576.384C1066.23 575.906 1066.66 575.348 1066.96 574.711C1067.25 574.073 1067.4 573.396 1067.4 572.679C1067.4 571.962 1067.25 571.291 1066.96 570.667C1066.66 570.043 1066.23 569.505 1065.69 569.053C1065.14 568.602 1064.48 568.243 1063.71 567.978C1062.94 567.712 1062.11 567.579 1061.2 567.579C1060.29 567.579 1059.46 567.705 1058.71 567.958C1057.95 568.21 1057.3 568.569 1056.75 569.033C1056.21 569.498 1055.78 570.043 1055.49 570.667C1055.19 571.291 1055.04 571.962 1055.04 572.679ZM1050.53 572.838C1050.53 571.563 1050.79 570.375 1051.32 569.272C1051.86 568.17 1052.59 567.214 1053.51 566.404C1054.43 565.594 1055.52 564.963 1056.75 564.512C1057.99 564.06 1059.32 563.834 1060.73 563.834C1061.79 563.834 1062.73 563.954 1063.55 564.192C1064.36 564.432 1065.04 564.697 1065.59 564.99C1066.14 565.282 1066.56 565.561 1066.86 565.826C1067.16 566.091 1067.34 566.251 1067.4 566.304C1067.4 566.012 1067.43 565.693 1067.5 565.348C1067.56 565.003 1067.59 564.644 1067.59 564.272H1071.91V580.328C1071.91 581.762 1071.65 583.043 1071.12 584.172C1070.58 585.301 1069.84 586.244 1068.88 587.001C1067.93 587.758 1066.78 588.336 1065.45 588.734C1064.12 589.133 1062.65 589.332 1061.06 589.332C1059.83 589.332 1058.76 589.225 1057.84 589.013C1056.91 588.8 1056.08 588.521 1055.34 588.177C1054.61 587.831 1053.93 587.446 1053.32 587.021C1052.71 586.596 1052.12 586.171 1051.56 585.746L1054.47 583.157C1055.35 583.847 1056.29 584.437 1057.3 584.93C1058.3 585.42 1059.52 585.666 1060.96 585.666C1062.9 585.666 1064.46 585.268 1065.62 584.471C1066.77 583.675 1067.36 582.545 1067.36 581.085V580.627C1067.36 580.455 1067.37 580.275 1067.4 580.089C1067.4 579.85 1067.43 579.637 1067.5 579.452C1067.56 579.266 1067.59 579.107 1067.59 578.973C1067.31 579.239 1066.97 579.531 1066.58 579.85C1066.19 580.168 1065.72 580.461 1065.17 580.726C1064.62 580.992 1063.99 581.211 1063.27 581.384C1062.54 581.556 1061.71 581.643 1060.77 581.643C1059.27 581.643 1057.89 581.416 1056.64 580.965C1055.38 580.514 1054.3 579.89 1053.39 579.093C1052.48 578.296 1051.78 577.367 1051.28 576.304C1050.78 575.242 1050.53 574.086 1050.53 572.838Z" fill="white"/>
<path d="M1020.68 561.8C1021.4 560.924 1022.11 560.034 1022.82 559.13C1023.52 558.228 1024.23 557.325 1024.96 556.422H1029.8C1028.86 557.325 1027.9 558.228 1026.93 559.13C1025.96 560.034 1024.99 560.924 1024.01 561.8H1020.68ZM1027.87 569.29C1027.49 568.706 1026.93 568.274 1026.18 567.995C1025.43 567.716 1024.69 567.577 1023.97 567.577C1023.12 567.577 1022.32 567.716 1021.57 567.995C1020.82 568.274 1020.18 568.646 1019.64 569.11C1019.11 569.575 1018.69 570.107 1018.37 570.704C1018.06 571.302 1017.9 571.92 1017.9 572.557V572.716C1018.69 572.451 1019.53 572.165 1020.42 571.86C1021.31 571.555 1022.2 571.242 1023.1 570.924C1023.99 570.605 1024.85 570.306 1025.66 570.027C1026.47 569.748 1027.21 569.503 1027.87 569.29ZM1031.82 579.25C1030.85 579.994 1029.67 580.578 1028.29 581.003C1026.91 581.427 1025.5 581.641 1024.06 581.641C1022.59 581.641 1021.2 581.407 1019.9 580.944C1018.6 580.479 1017.47 579.841 1016.52 579.031C1015.56 578.221 1014.8 577.278 1014.24 576.202C1013.67 575.127 1013.39 573.978 1013.39 572.756C1013.39 571.535 1013.67 570.386 1014.24 569.31C1014.8 568.234 1015.56 567.292 1016.52 566.481C1017.47 565.671 1018.59 565.034 1019.85 564.569C1021.12 564.105 1022.46 563.872 1023.87 563.872C1026.13 563.872 1028.11 564.45 1029.82 565.604C1031.53 566.76 1032.74 568.281 1033.46 570.166C1032.52 570.459 1031.43 570.811 1030.2 571.222C1028.96 571.634 1027.67 572.066 1026.32 572.517C1024.97 572.969 1023.62 573.427 1022.28 573.892C1020.93 574.357 1019.69 574.775 1018.56 575.146C1019.09 575.97 1019.83 576.634 1020.77 577.139C1021.71 577.643 1022.78 577.896 1023.97 577.896C1024.78 577.896 1025.61 577.77 1026.44 577.517C1027.27 577.265 1027.95 576.927 1028.48 576.501L1031.82 579.25Z" fill="white"/>
<path d="M1081.98 581.203H1077.46V564.271H1081.98V581.203ZM1076.95 557.697C1076.95 557.007 1077.24 556.436 1077.84 555.985C1078.43 555.533 1079.08 555.307 1079.77 555.307C1080.46 555.307 1081.09 555.533 1081.67 555.985C1082.25 556.436 1082.54 557.007 1082.54 557.697C1082.54 558.415 1082.25 558.992 1081.67 559.43C1081.09 559.869 1080.46 560.088 1079.77 560.088C1079.08 560.088 1078.43 559.869 1077.84 559.43C1077.24 558.992 1076.95 558.415 1076.95 557.697Z" fill="white"/>
<path d="M1100.87 576.78C1101.34 577.285 1101.8 577.77 1102.24 578.234C1102.68 578.699 1103.13 579.171 1103.6 579.649C1102.69 580.26 1101.67 580.744 1100.55 581.103C1099.42 581.461 1098.21 581.641 1096.93 581.641C1095.45 581.641 1094.07 581.408 1092.76 580.944C1091.46 580.479 1090.34 579.842 1089.38 579.031C1088.42 578.221 1087.66 577.272 1087.1 576.182C1086.54 575.094 1086.25 573.939 1086.25 572.716C1086.25 571.495 1086.54 570.346 1087.1 569.27C1087.66 568.195 1088.42 567.252 1089.38 566.442C1090.34 565.631 1091.46 564.994 1092.76 564.529C1094.07 564.065 1095.45 563.832 1096.93 563.832C1098.24 563.832 1099.47 564.012 1100.62 564.37C1101.76 564.728 1102.8 565.213 1103.74 565.824L1100.87 568.653C1099.78 567.936 1098.46 567.577 1096.93 567.577C1096.02 567.577 1095.19 567.71 1094.43 567.976C1093.68 568.241 1093.03 568.6 1092.48 569.051C1091.93 569.503 1091.51 570.041 1091.21 570.665C1090.92 571.289 1090.77 571.973 1090.77 572.716C1090.77 573.434 1090.92 574.104 1091.21 574.728C1091.51 575.353 1091.93 575.904 1092.48 576.382C1093.03 576.86 1093.68 577.232 1094.43 577.497C1095.19 577.763 1096.02 577.896 1096.93 577.896C1098.49 577.896 1099.81 577.524 1100.87 576.78Z" fill="white"/>
<path d="M1142.01 581.52C1139.13 581.52 1136.73 580.71 1134.82 579.089C1132.91 577.47 1131.95 575.438 1131.95 572.994C1131.95 570.55 1132.91 568.519 1134.82 566.898C1136.73 565.278 1139.13 564.468 1142.01 564.468C1144.48 564.468 1146.46 564.946 1147.93 565.902V567.855L1146.71 567.177L1145.39 566.579C1144.2 566.235 1143.07 566.061 1142.01 566.061C1139.6 566.061 1137.64 566.699 1136.13 567.974C1134.6 569.276 1133.83 570.949 1133.83 572.994C1133.83 575.013 1134.6 576.673 1136.13 577.974C1137.67 579.276 1139.63 579.926 1142.01 579.926C1144.27 579.926 1146.24 579.289 1147.93 578.014V580.045C1146.18 581.028 1144.2 581.52 1142.01 581.52Z" fill="white"/>
<path d="M1110.09 572.677C1110.09 573.421 1110.23 574.111 1110.53 574.748C1110.83 575.386 1111.25 575.937 1111.8 576.402C1112.35 576.867 1113 577.232 1113.75 577.497C1114.5 577.763 1115.33 577.896 1116.24 577.896C1117.15 577.896 1117.98 577.763 1118.74 577.497C1119.49 577.232 1120.14 576.86 1120.69 576.382C1121.23 575.904 1121.66 575.346 1121.96 574.708C1122.25 574.071 1122.4 573.394 1122.4 572.677C1122.4 571.96 1122.25 571.289 1121.96 570.665C1121.66 570.041 1121.23 569.503 1120.69 569.051C1120.14 568.6 1119.49 568.241 1118.74 567.976C1117.98 567.71 1117.15 567.577 1116.24 567.577C1115.33 567.577 1114.5 567.703 1113.75 567.956C1113 568.208 1112.35 568.567 1111.8 569.031C1111.25 569.496 1110.83 570.041 1110.53 570.665C1110.23 571.289 1110.09 571.96 1110.09 572.677ZM1105.53 572.916C1105.53 571.694 1105.81 570.532 1106.37 569.43C1106.94 568.328 1107.7 567.365 1108.65 566.541C1109.61 565.718 1110.72 565.061 1111.99 564.569C1113.26 564.077 1114.6 563.832 1116.01 563.832C1116.95 563.832 1117.8 563.932 1118.55 564.131C1119.3 564.33 1119.95 564.563 1120.5 564.828C1121.05 565.093 1121.48 565.366 1121.79 565.644C1122.1 565.924 1122.31 566.143 1122.4 566.302L1122.59 564.27H1126.96V581.202H1122.4V580.087C1122.4 579.955 1122.41 579.828 1122.43 579.708C1122.44 579.589 1122.45 579.503 1122.45 579.45C1122.32 579.582 1122.1 579.775 1121.79 580.027C1121.48 580.28 1121.05 580.525 1120.52 580.764C1119.99 581.003 1119.35 581.209 1118.62 581.382C1117.88 581.554 1117.03 581.641 1116.06 581.641C1114.52 581.641 1113.11 581.402 1111.83 580.924C1110.54 580.446 1109.43 579.808 1108.49 579.011C1107.55 578.214 1106.82 577.292 1106.3 576.242C1105.78 575.193 1105.53 574.084 1105.53 572.916Z" fill="white"/>
<path d="M1152.63 564.749H1154.56V581.203H1152.63V564.749ZM1153.62 561.801C1153.27 561.801 1152.91 561.681 1152.54 561.442C1152.25 561.203 1152.1 560.885 1152.07 560.486C1152.07 559.769 1152.58 559.331 1153.62 559.172C1154.4 559.172 1154.92 559.61 1155.17 560.486C1155.17 561.363 1154.65 561.801 1153.62 561.801Z" fill="white"/>
<path d="M1176.23 588.934H1174.07L1179.1 579.691L1170.92 564.751H1172.98L1180.22 577.738L1187.37 564.751H1189.48L1176.23 588.934Z" fill="white"/>
<path d="M1163.86 566.383V581.203H1161.94V566.383H1159.3V564.749H1161.94V557.538H1163.86V564.749H1168.38V566.383H1163.86Z" fill="white"/>
</g>
<path fill-rule="evenodd" clip-rule="evenodd" d="M980.046 449.082H1173.7C1189.55 449.082 1204 457.606 1214.49 471.341C1225.08 485.189 1231.65 504.321 1231.65 525.382V601.685H952.473V485.635C952.473 475.503 955.63 466.309 960.705 459.665C965.695 453.135 972.547 449.082 980.046 449.082V449.082ZM1173.7 446.001H980.046C971.536 446.001 963.825 450.519 958.263 457.797C952.791 464.959 949.392 474.813 949.392 485.635V603.226C949.392 604.076 950.084 604.766 950.934 604.766H1233.19C1234.04 604.766 1234.73 604.076 1234.73 603.226V525.382C1234.73 503.632 1227.91 483.839 1216.93 469.473C1205.87 454.992 1190.56 446.001 1173.7 446.001" fill="#373435"/>
<path fill-rule="evenodd" clip-rule="evenodd" d="M1173.7 447.537H1130.67V537.406C1130.67 544.366 1136.36 550.062 1143.32 550.062H1233.19V525.379C1233.19 482.566 1206.42 447.537 1173.7 447.537Z" fill="#E7FED5"/>
<path fill-rule="evenodd" clip-rule="evenodd" d="M1132.2 449.083H1173.7C1189.55 449.083 1204 457.606 1214.49 471.341C1225.08 485.19 1231.65 504.322 1231.65 525.383V548.524H1143.32C1140.31 548.524 1137.56 547.305 1135.54 545.337L1135.47 545.259C1133.46 543.243 1132.2 540.464 1132.2 537.409V449.083ZM1173.7 446.002H1130.67C1129.82 446.002 1129.12 446.691 1129.12 447.541V537.409C1129.12 541.314 1130.72 544.865 1133.29 547.437L1133.39 547.524C1135.95 550.046 1139.46 551.605 1143.32 551.605H1233.19C1234.04 551.605 1234.73 550.916 1234.73 550.066V525.383C1234.73 503.633 1227.91 483.84 1216.93 469.474C1205.87 454.992 1190.56 446.002 1173.7 446.002Z" fill="#373435"/>
<path fill-rule="evenodd" clip-rule="evenodd" d="M1116.74 447.537H980.045C964.033 447.537 950.933 464.68 950.933 485.63V491.84H1116.74V447.537Z" fill="#E7FED5"/>
<path fill-rule="evenodd" clip-rule="evenodd" d="M980.046 449.083H1115.2V490.302H952.474V485.633C952.474 475.503 955.627 466.31 960.708 459.665C965.696 453.136 972.547 449.083 980.046 449.083V449.083ZM1116.74 446.002H980.046C971.536 446.002 963.826 450.52 958.264 457.797C952.791 464.96 949.393 474.814 949.393 485.633V491.843C949.393 492.694 950.084 493.383 950.934 493.383H1116.74C1117.59 493.383 1118.28 492.694 1118.28 491.843V447.541C1118.28 446.691 1117.59 446.002 1116.74 446.002" fill="#373435"/>
<path fill-rule="evenodd" clip-rule="evenodd" d="M950.933 504.501V548.801H1095.23C1107.06 548.801 1116.74 543.421 1116.74 536.846V504.501H950.933" fill="#E7FED5"/>
<path fill-rule="evenodd" clip-rule="evenodd" d="M952.474 547.257V506.037H1115.2V536.844C1115.2 539.529 1113.09 542.049 1109.68 543.943C1106 545.987 1100.88 547.257 1095.23 547.257H952.474ZM949.393 504.498V548.798C949.393 549.648 950.084 550.34 950.934 550.34H1095.23C1101.4 550.34 1107.05 548.918 1111.17 546.628C1115.56 544.191 1118.28 540.731 1118.28 536.844V504.498C1118.28 503.646 1117.59 502.956 1116.74 502.956H950.934C950.084 502.956 949.393 503.646 949.393 504.498" fill="#373435"/>
<path fill-rule="evenodd" clip-rule="evenodd" d="M1226.86 614.617H955.996V601.962H1226.86V614.617Z" fill="white"/>
<path fill-rule="evenodd" clip-rule="evenodd" d="M957.537 603.501H1225.32V613.075H957.537V603.501ZM1226.86 600.418H955.995C955.147 600.418 954.456 601.108 954.456 601.96V614.615C954.456 615.467 955.147 616.156 955.995 616.156H1226.86C1227.71 616.156 1228.4 615.467 1228.4 614.615V601.96C1228.4 601.108 1227.71 600.418 1226.86 600.418Z" fill="#373435"/>
<path fill-rule="evenodd" clip-rule="evenodd" d="M1034.8 627.875C1023.72 627.875 1014.67 618.834 1014.67 607.747C1014.67 596.66 1023.72 587.617 1034.8 587.617C1045.89 587.617 1054.93 596.66 1054.93 607.747C1054.93 618.834 1045.89 627.875 1034.8 627.875Z" fill="#A1A0A5"/>
<path fill-rule="evenodd" clip-rule="evenodd" d="M1050.12 592.426C1046.2 588.503 1040.78 586.079 1034.8 586.079C1028.82 586.079 1023.4 588.503 1019.48 592.426C1015.56 596.346 1013.13 601.765 1013.13 607.748C1013.13 613.732 1015.56 619.148 1019.48 623.071C1023.4 626.994 1028.82 629.418 1034.8 629.418C1040.78 629.418 1046.2 626.994 1050.12 623.071C1054.04 619.151 1056.47 613.732 1056.47 607.748C1056.47 601.765 1054.04 596.346 1050.12 592.426ZM1034.8 589.16C1039.94 589.16 1044.58 591.241 1047.95 594.604C1051.31 597.968 1053.39 602.615 1053.39 607.748C1053.39 612.882 1051.31 617.529 1047.95 620.892C1044.58 624.256 1039.94 626.337 1034.8 626.337C1029.67 626.337 1025.02 624.256 1021.66 620.892C1018.29 617.529 1016.21 612.882 1016.21 607.748C1016.21 602.615 1018.29 597.968 1021.66 594.604C1025.02 591.241 1029.67 589.16 1034.8 589.16Z" fill="#373435"/>
<path fill-rule="evenodd" clip-rule="evenodd" d="M1034.8 617.137C1029.63 617.137 1025.41 612.918 1025.41 607.746C1025.41 602.573 1029.63 598.352 1034.8 598.352C1039.97 598.352 1044.2 602.573 1044.2 607.746C1044.2 612.918 1039.97 617.137 1034.8 617.137Z" fill="white"/>
<path fill-rule="evenodd" clip-rule="evenodd" d="M1042.53 600.019C1040.56 598.04 1037.82 596.816 1034.8 596.816C1031.78 596.816 1029.05 598.04 1027.07 600.019C1025.09 601.997 1023.87 604.732 1023.87 607.75C1023.87 610.771 1025.09 613.506 1027.07 615.483C1029.05 617.461 1031.78 618.688 1034.8 618.688C1037.82 618.688 1040.56 617.461 1042.53 615.483C1044.51 613.506 1045.73 610.771 1045.73 607.75C1045.73 604.732 1044.51 601.997 1042.53 600.019ZM1034.8 599.897C1036.97 599.897 1038.93 600.777 1040.35 602.197C1041.77 603.619 1042.65 605.583 1042.65 607.75C1042.65 609.918 1041.77 611.884 1040.35 613.304C1038.93 614.724 1036.97 615.604 1034.8 615.604C1032.63 615.604 1030.67 614.724 1029.25 613.304C1027.83 611.884 1026.95 609.918 1026.95 607.75C1026.95 605.583 1027.83 603.619 1029.25 602.197C1030.67 600.777 1032.63 599.897 1034.8 599.897Z" fill="#373435"/>
<path fill-rule="evenodd" clip-rule="evenodd" d="M1208.15 492.537C1208.75 493.139 1209.73 493.139 1210.33 492.537C1210.93 491.936 1210.93 490.96 1210.33 490.358L1187.99 468.014C1187.38 467.412 1186.41 467.412 1185.81 468.014C1185.2 468.614 1185.2 469.591 1185.81 470.193L1208.15 492.537" fill="#373435"/>
<path fill-rule="evenodd" clip-rule="evenodd" d="M1204.54 518.672C1205.13 519.286 1206.1 519.303 1206.71 518.716C1207.33 518.127 1207.34 517.153 1206.76 516.542L1165.95 474.194C1165.36 473.583 1164.38 473.563 1163.77 474.153C1163.16 474.74 1163.14 475.714 1163.73 476.325L1204.54 518.672" fill="#373435"/>
<path fill-rule="evenodd" clip-rule="evenodd" d="M1106.89 471.029C1107.49 471.631 1108.47 471.631 1109.07 471.029C1109.67 470.426 1109.67 469.45 1109.07 468.848L1096.85 456.624C1096.24 456.024 1095.27 456.024 1094.67 456.624C1094.06 457.226 1094.06 458.202 1094.67 458.804L1106.89 471.029Z" fill="#373435"/>
<path fill-rule="evenodd" clip-rule="evenodd" d="M1104.91 485.31C1105.5 485.921 1106.47 485.941 1107.08 485.352C1107.69 484.764 1107.71 483.79 1107.12 483.179L1084.8 460.012C1084.21 459.401 1083.24 459.381 1082.63 459.97C1082.01 460.557 1082 461.531 1082.58 462.142L1104.91 485.31" fill="#373435"/>
<path fill-rule="evenodd" clip-rule="evenodd" d="M1240.5 573.742C1241.35 573.755 1242.04 573.079 1242.06 572.231C1242.07 571.385 1241.39 570.685 1240.55 570.672L1219.29 570.313C1218.44 570.3 1217.74 570.978 1217.73 571.824C1217.72 572.672 1218.39 573.37 1219.24 573.383L1240.5 573.742Z" fill="#373435"/>
<path fill-rule="evenodd" clip-rule="evenodd" d="M1240.5 581.176C1241.35 581.189 1242.04 580.512 1242.06 579.664C1242.07 578.816 1241.39 578.118 1240.55 578.105L1219.29 577.747C1218.44 577.736 1217.74 578.412 1217.73 579.258C1217.72 580.106 1218.39 580.804 1219.24 580.817L1240.5 581.176Z" fill="#373435"/>
<path fill-rule="evenodd" clip-rule="evenodd" d="M1235.47 584.24H1222.05C1220.52 584.24 1219.27 585.493 1219.27 587.025V600.441C1219.27 601.974 1220.52 603.227 1222.05 603.227H1235.47C1237 603.227 1238.25 601.974 1238.25 600.441V587.025C1238.25 585.493 1237 584.24 1235.47 584.24Z" fill="#49A384"/>
<path fill-rule="evenodd" clip-rule="evenodd" d="M1222.05 585.781H1235.47C1235.81 585.781 1236.12 585.923 1236.34 586.149C1236.57 586.373 1236.71 586.684 1236.71 587.025V600.441C1236.71 600.782 1236.57 601.093 1236.34 601.319C1236.12 601.543 1235.81 601.685 1235.47 601.685H1222.05C1221.74 601.685 1221.45 601.569 1221.23 601.378L1221.17 601.319C1220.95 601.093 1220.81 600.782 1220.81 600.441V587.025C1220.81 586.684 1220.95 586.373 1221.17 586.149L1221.17 586.144L1221.17 586.142C1221.4 585.921 1221.71 585.781 1222.05 585.781ZM1235.47 582.698H1222.05C1220.87 582.698 1219.78 583.187 1219 583.972V583.968C1218.21 584.751 1217.73 585.834 1217.73 587.025V600.441C1217.73 601.632 1218.21 602.715 1219 603.498C1219.03 603.533 1219.07 603.565 1219.1 603.596C1219.88 604.322 1220.92 604.766 1222.05 604.766H1235.47C1236.66 604.766 1237.74 604.281 1238.52 603.498C1239.31 602.715 1239.79 601.632 1239.79 600.441V587.025C1239.79 585.834 1239.31 584.751 1238.52 583.968C1237.74 583.185 1236.66 582.698 1235.47 582.698" fill="#373435"/>
<path fill-rule="evenodd" clip-rule="evenodd" d="M1201.87 627.875C1190.79 627.875 1181.75 618.834 1181.75 607.747C1181.75 596.66 1190.79 587.617 1201.87 587.617C1212.96 587.617 1222 596.66 1222 607.747C1222 618.834 1212.96 627.875 1201.87 627.875" fill="#A1A0A5"/>
<path fill-rule="evenodd" clip-rule="evenodd" d="M1217.2 592.426C1213.28 588.503 1207.86 586.079 1201.88 586.079C1195.89 586.079 1190.47 588.503 1186.55 592.426C1182.63 596.346 1180.21 601.765 1180.21 607.748C1180.21 613.732 1182.63 619.148 1186.55 623.071C1190.47 626.994 1195.89 629.418 1201.88 629.418C1207.86 629.418 1213.28 626.994 1217.2 623.071C1221.12 619.151 1223.54 613.732 1223.54 607.748C1223.54 601.765 1221.12 596.346 1217.2 592.426V592.426ZM1201.88 589.16C1207.01 589.16 1211.66 591.241 1215.02 594.604C1218.38 597.968 1220.46 602.615 1220.46 607.748C1220.46 612.882 1218.38 617.529 1215.02 620.892C1211.66 624.256 1207.01 626.337 1201.88 626.337C1196.74 626.337 1192.1 624.256 1188.73 620.892C1185.37 617.529 1183.29 612.882 1183.29 607.748C1183.29 602.615 1185.37 597.968 1188.73 594.604C1192.1 591.241 1196.74 589.16 1201.88 589.16Z" fill="#373435"/>
<path fill-rule="evenodd" clip-rule="evenodd" d="M1201.88 617.137C1196.7 617.137 1192.48 612.918 1192.48 607.746C1192.48 602.573 1196.7 598.352 1201.88 598.352C1207.05 598.352 1211.27 602.573 1211.27 607.746C1211.27 612.918 1207.05 617.137 1201.88 617.137Z" fill="white"/>
<path fill-rule="evenodd" clip-rule="evenodd" d="M1209.61 600.019C1207.63 598.04 1204.9 596.816 1201.88 596.816C1198.86 596.816 1196.12 598.04 1194.15 600.019C1192.17 601.997 1190.94 604.732 1190.94 607.75C1190.94 610.771 1192.17 613.506 1194.15 615.483C1196.12 617.461 1198.86 618.688 1201.88 618.688C1204.9 618.688 1207.63 617.461 1209.61 615.483C1211.59 613.506 1212.81 610.771 1212.81 607.75C1212.81 604.732 1211.59 601.997 1209.61 600.019ZM1201.88 599.897C1204.05 599.897 1206.01 600.777 1207.43 602.197C1208.85 603.619 1209.73 605.583 1209.73 607.75C1209.73 609.918 1208.85 611.884 1207.43 613.304C1206.01 614.724 1204.05 615.604 1201.88 615.604C1199.71 615.604 1197.75 614.724 1196.33 613.304C1194.9 611.884 1194.02 609.918 1194.02 607.75C1194.02 605.583 1194.9 603.619 1196.33 602.197C1197.75 600.777 1199.71 599.897 1201.88 599.897Z" fill="#373435"/>
<path fill-rule="evenodd" clip-rule="evenodd" d="M974.982 601.961H939.543V590.569H974.982V601.961Z" fill="#F0F5FF"/>
<path fill-rule="evenodd" clip-rule="evenodd" d="M941.084 592.106H973.442V600.417H941.084V592.106ZM974.982 589.025H939.543C938.69 589.025 938.001 589.717 938.001 590.567V601.958C938.001 602.809 938.69 603.5 939.543 603.5H974.982C975.832 603.5 976.523 602.809 976.523 601.958V590.567C976.523 589.717 975.832 589.025 974.982 589.025Z" fill="#373435"/>
<path fill-rule="evenodd" clip-rule="evenodd" d="M980.376 627.875C969.289 627.875 960.248 618.834 960.248 607.747C960.248 596.66 969.289 587.617 980.376 587.617C991.463 587.617 1000.51 596.66 1000.51 607.747C1000.51 618.834 991.463 627.875 980.376 627.875Z" fill="#A1A0A5"/>
<path fill-rule="evenodd" clip-rule="evenodd" d="M995.698 592.426C991.778 588.503 986.359 586.079 980.376 586.079C974.392 586.079 968.973 588.503 965.051 592.426C961.133 596.346 958.706 601.765 958.706 607.748C958.706 613.732 961.133 619.148 965.051 623.071C968.973 626.994 974.392 629.418 980.376 629.418C986.359 629.418 991.778 626.994 995.698 623.071C999.62 619.151 1002.04 613.732 1002.04 607.748C1002.04 601.765 999.62 596.346 995.698 592.426ZM980.376 589.16C985.509 589.16 990.156 591.241 993.519 594.604C996.883 597.968 998.964 602.615 998.964 607.748C998.964 612.882 996.883 617.529 993.519 620.892C990.156 624.256 985.509 626.337 980.376 626.337C975.242 626.337 970.595 624.256 967.232 620.892C963.87 617.529 961.79 612.882 961.79 607.748C961.79 602.615 963.87 597.968 967.232 594.604C970.595 591.241 975.242 589.16 980.376 589.16Z" fill="#373435"/>
<path fill-rule="evenodd" clip-rule="evenodd" d="M980.374 617.137C975.199 617.137 970.981 612.918 970.981 607.746C970.981 602.573 975.199 598.352 980.374 598.352C985.547 598.352 989.77 602.573 989.77 607.746C989.77 612.918 985.547 617.137 980.374 617.137Z" fill="white"/>
<path fill-rule="evenodd" clip-rule="evenodd" d="M988.11 600.019C986.133 598.04 983.398 596.816 980.378 596.816C977.36 596.816 974.625 598.04 972.646 600.019C970.669 601.997 969.443 604.732 969.443 607.75C969.443 610.771 970.669 613.506 972.646 615.483C974.625 617.461 977.36 618.688 980.378 618.688C983.398 618.688 986.133 617.461 988.11 615.483C990.088 613.506 991.312 610.771 991.312 607.75C991.312 604.732 990.088 601.997 988.11 600.019ZM980.378 599.897C982.546 599.897 984.511 600.777 985.931 602.197C987.351 603.619 988.232 605.583 988.232 607.75C988.232 609.918 987.351 611.884 985.931 613.304C984.511 614.724 982.546 615.604 980.378 615.604C978.21 615.604 976.247 614.724 974.827 613.304C973.405 611.884 972.526 609.918 972.526 607.75C972.526 605.583 973.405 603.619 974.827 602.197C976.247 600.777 978.21 599.897 980.378 599.897Z" fill="#373435"/>
</g>
</g>
<defs>
<linearGradient id="paint0_linear_2261_20068" x1="1723.5" y1="0" x2="1723.5" y2="750" gradientUnits="userSpaceOnUse">
<stop stop-color="#C5F79F"/>
<stop offset="1" stop-color="#5FDC00" stop-opacity="0"/>
</linearGradient>
<linearGradient id="paint1_linear_2261_20068" x1="1710.5" y1="0" x2="1710.5" y2="760" gradientUnits="userSpaceOnUse">
<stop stop-color="#C5F79F"/>
<stop offset="1" stop-color="#5FDC00"/>
</linearGradient>
<clipPath id="clip0_2261_20068">
<rect width="3425" height="758" fill="white"/>
</clipPath>
<clipPath id="clip1_2261_20068">
<rect width="3447" height="750" fill="white" transform="matrix(-1 0 0 -1 3448 750)"/>
</clipPath>
<clipPath id="clip2_2261_20068">
<rect width="3452.39" height="335" fill="white" transform="translate(1 423)"/>
</clipPath>
</defs>
</svg>
